<svg width="42" height="41" viewBox="0 0 42 41" fill="none" xmlns="http://www.w3.org/2000/svg">
<path d="M30.2376 38.1517C16.741 44.8913 0.700897 35.2743 0.700897 20.517C0.700897 4.88103 18.5961 -4.69318 32.1136 3.9457C45.1582 12.2861 44.0753 31.2438 30.2376 38.1517Z" fill="#D1E7FF"/>
<path d="M38.088 9.82477C24.6358 1.389 6.7317 10.8493 6.82611 26.6088C6.84239 29.3198 2.98005 30.0357 2.00138 27.4983C0.656009 24.0102 0.325266 20.1685 1.13664 16.4198C4.86449 -0.859109 28.2928 -5.03266 38.088 9.82477Z" fill="#E8F3FF"/>
<path d="M39.2718 29.1534L35.8288 24.19C35.6318 23.906 35.5185 23.5747 35.5012 23.2322C35.4839 22.8898 35.5633 22.5492 35.7308 22.2477L36.9863 19.9871C37.2777 19.4622 37.2952 18.8324 37.0327 18.2931L35.533 15.2037C35.3962 14.9223 35.1897 14.6786 34.9321 14.4944C34.6746 14.3103 34.3741 14.1916 34.0578 14.1489L31.8835 13.8579C31.5102 13.8081 31.1603 13.6524 30.8771 13.41C30.594 13.1677 30.3901 12.8495 30.291 12.4951L29.2926 8.92443C29.2171 8.6538 29.2048 8.37009 29.2566 8.0942C29.3084 7.81831 29.423 7.55726 29.5919 7.33028L32.1136 3.9457C40.7874 9.49152 43.657 20.3428 39.2718 29.1534ZM31.0216 29.7115C31.2494 29.9282 31.4185 30.1966 31.5138 30.4927C31.6091 30.7888 31.6276 31.1033 31.5676 31.4081L30.2376 38.1517C27.6109 39.4633 24.6526 40.2331 21.5184 40.3091L15.9973 35.0018C15.8091 34.8205 15.6612 34.6034 15.5629 34.3639C15.4646 34.1244 15.418 33.8677 15.4259 33.6099L15.5344 30.1271C15.5589 29.3301 15.0628 28.6047 14.299 28.3196L7.34549 25.7338C7.08572 25.6373 6.85055 25.4869 6.65626 25.293C6.46197 25.0991 6.31321 24.8663 6.22027 24.6108L3.78257 17.9321C3.6767 17.6421 3.49927 17.3821 3.26595 17.1749C3.03262 16.9678 2.75058 16.8198 2.44472 16.7441C2.44175 16.7434 1.13934 16.4211 1.13663 16.4198C1.81124 13.293 3.24183 10.4375 5.23504 8.04458C5.25866 8.06378 4.71871 7.94533 12.2716 9.53547C12.5336 9.59059 12.7809 9.69856 12.9976 9.85244C13.2143 10.0063 13.3956 10.2027 13.5299 10.429L14.7688 12.5198C14.9375 12.8042 15.1799 13.0404 15.4717 13.2046C15.7635 13.3687 16.0944 13.4552 16.4313 13.4551H16.699C17.3964 13.4551 18.0395 13.0865 18.3781 12.4916C18.6989 11.9289 19.1037 10.9419 20.4186 10.9419C21.4791 10.9419 22.3392 11.7808 22.3392 12.8151V19.5313C22.3392 20.1432 22.0329 20.7167 21.5184 21.0675L19.5532 22.4056C18.018 23.4507 18.7805 25.8149 20.6531 25.8149H26.1401C26.6414 25.8149 27.1227 26.0061 27.4814 26.3466L31.0216 29.7115Z" fill="#B9DCFF"/>
<path d="M33.0906 7.56104C32.0565 7.25157 30.9986 7.02371 29.927 6.87969L32.1136 3.9457C32.8583 4.42198 33.5702 4.94532 34.2448 5.51237C35.2471 6.35476 34.3555 7.93969 33.0906 7.56104ZM14.0653 11.3327C9.87121 14.7774 7.14503 19.8262 6.85288 25.4625C6.25737 25.0144 6.43122 25.1888 3.78257 17.9321C3.36853 16.7994 2.3798 16.7281 1.13838 16.4207L1.13663 16.4198C1.81124 13.293 3.24183 10.4375 5.23504 8.04458L5.25079 8.05738C13.7512 9.84696 12.8153 9.22304 14.0653 11.3327Z" fill="#D1E7FF"/>
<path d="M21.5254 40.9986C21.1216 40.9986 21.4861 41.2367 15.5062 35.4875C14.4816 34.5025 14.7226 33.7116 14.8345 30.1067C14.8421 29.8594 14.7705 29.6159 14.6298 29.41C14.4891 29.2042 14.2861 29.0461 14.0492 28.9578L7.09569 26.3713C6.74134 26.2398 6.42053 26.0347 6.15545 25.7704C5.89037 25.506 5.68735 25.1885 5.56045 24.8401L3.78144 19.9654C3.47126 19.1156 4.78977 18.6566 5.1003 19.5075C7.00872 24.7369 6.89252 24.8344 7.59452 25.0956L14.548 27.6822C15.5902 28.0698 16.2676 29.0607 16.2338 30.1481C16.1184 33.864 15.9927 34.0382 16.489 34.5152L21.7949 39.6164C24.6007 39.5083 27.2419 38.8416 29.6084 37.7263C30.9728 30.8073 31.1611 30.7978 30.533 30.201C26.7073 26.5647 26.8026 26.4979 26.1404 26.4979H20.6531C18.0915 26.4979 17.0604 23.27 19.1528 21.8453L21.1175 20.5076C21.8241 20.0265 21.6396 19.9529 21.6396 12.8152C21.6396 12.19 21.1341 11.6242 20.3913 11.6242C18.7129 11.6242 19.5292 14.1381 16.4317 14.1381C15.4988 14.1381 14.6293 13.6488 14.1625 12.8612L12.9237 10.7711C12.5556 10.1499 12.6145 10.3062 5.50576 8.80957C-3.02836 19.547 2.40676 35.2902 15.6963 38.9252C16.4758 39.1384 16.316 40.2655 15.5077 40.2655C15.2188 40.2655 8.90253 38.7718 4.34589 32.9941C-1.69533 25.334 -1.30579 14.8161 4.69107 7.61404C5.06232 7.16822 4.79248 7.26244 12.4196 8.86828C13.834 9.16612 14.1542 10.1188 15.3745 12.1778C15.7586 12.8258 16.4261 12.7727 16.6987 12.7727C17.5295 12.7727 17.7835 12.1295 18.1001 11.5737C19.3953 9.3001 23.0396 10.1573 23.0396 12.8152C23.0396 21.6729 23.7433 20.3849 19.9542 22.9649C18.9805 23.6279 19.4588 25.1324 20.6532 25.1324C26.4523 25.1324 26.9825 24.9194 27.9697 25.8578L31.5101 29.2229C31.8214 29.5179 32.0525 29.8839 32.1825 30.2878C32.3125 30.6917 32.3373 31.1208 32.2547 31.5365L31.2001 36.8849C43.1432 29.8484 43.9252 12.9087 32.2757 4.88947C30.0265 7.90846 29.7685 8.03041 29.9682 8.74479L30.9666 12.3152C31.4785 14.1457 34.9367 12.3809 36.1655 14.911L37.6657 18.0003C38.8548 20.4477 35.3659 22.3041 36.4087 23.8073C36.724 24.2619 36.3862 24.8727 35.8295 24.8727C35.0547 24.8727 34.3828 23.2415 35.1154 21.9223C36.3968 19.615 36.7429 19.2896 36.4006 18.5849C34.3119 14.284 35.1816 14.9888 31.7883 14.5345C31.2789 14.4668 30.8013 14.2543 30.415 13.9236C30.0287 13.5928 29.7508 13.1584 29.616 12.6745C28.0637 7.12274 27.8788 8.46863 31.1026 4.14138C24.5958 0.308681 16.1114 0.411345 9.59166 4.97132C8.84014 5.49692 8.02309 4.38819 8.77583 3.86173C22.6995 -5.87676 42 3.95312 42 20.517C42 32.3623 31.8545 40.9986 21.5254 40.9986Z" fill="#2E58FF"/>
</svg>
