<svg width="153" height="37" viewBox="0 0 153 37" fill="none" xmlns="http://www.w3.org/2000/svg">
<g clip-path="url(#clip0_17_2)">
<path d="M50.459 29.379L55.22 5.06299L62.983 22.641L71.025 5.06299L75.303 29.379H71.803L69.619 15.727L62.925 30.419L56.425 15.712L53.989 29.379H50.459ZM92.573 9.96999H83.506V15.405H92.306V18.613H83.506V26.172H92.573V29.379H80.093V6.76199H92.573V9.96999ZM100.473 6.76199V26.171H107.123V29.379H97.056V6.76199H100.473ZM120.995 17.602H130.34V18.349C130.364 19.8744 130.162 21.3949 129.74 22.861C129.323 24.1188 128.649 25.2765 127.762 26.261C126.771 27.4076 125.538 28.3201 124.152 28.9328C122.766 29.5455 121.261 29.843 119.746 29.804C118.228 29.8242 116.722 29.5303 115.323 28.941C113.924 28.3516 112.662 27.4793 111.616 26.379C110.523 25.3016 109.66 24.0141 109.079 22.5942C108.497 21.1742 108.209 19.6512 108.232 18.117C108.203 16.5636 108.494 15.0209 109.086 13.5845C109.678 12.1481 110.559 10.8487 111.674 9.76699C112.761 8.65115 114.066 7.77003 115.507 7.17802C116.948 6.58602 118.495 6.2957 120.053 6.32499C121.764 6.31248 123.455 6.68287 125.004 7.40899C126.661 8.28596 128.129 9.48068 129.325 10.925L126.893 13.254C126.151 12.1296 125.145 11.204 123.963 10.5579C122.78 9.91193 121.458 9.56519 120.111 9.54799C118.991 9.52176 117.877 9.72827 116.841 10.1545C115.804 10.5806 114.868 11.2172 114.09 12.024C113.29 12.82 112.662 13.7713 112.243 14.8193C111.825 15.8674 111.626 16.99 111.658 18.118C111.627 19.2908 111.853 20.4563 112.321 21.5321C112.79 22.6078 113.488 23.5677 114.368 24.344C115.844 25.771 117.808 26.5829 119.861 26.615C121.527 26.62 123.137 26.0153 124.387 24.915C125.014 24.4145 125.535 23.7942 125.92 23.0903C126.304 22.3864 126.545 21.6129 126.628 20.815H120.988L120.995 17.602ZM146.895 23.886H137.207L134.687 29.379H131.011L142.202 5.34099L152.998 29.379H149.263L146.895 23.886ZM145.498 20.679L142.14 12.987L138.628 20.679H145.498Z" fill="#00B5EE"/>
<path d="M21.749 29.379L9.68903 8.43796H33.74L21.749 29.379Z" fill="#122259"/>
<path d="M10.486 9.08098L21.216 27.781L16.049 36.542L0.0579834 9.06998L10.486 9.08098Z" fill="#00B5EE"/>
<path d="M5.22101 0.0249634H36.838L42.125 9.08496H0L5.22101 0.0249634Z" fill="#00B5EE"/>
<path d="M15.886 36.515L31.727 9.06897H42.067L26.06 36.514L15.886 36.515Z" fill="#00B5EE"/>
<path d="M5.21503 0.000976562L10.425 9.05197H0L5.21503 0.000976562Z" fill="#00B5EE"/>
<path d="M36.946 0.000976562L42.155 9.05197H31.73L36.946 0.000976562Z" fill="#00B5EE"/>
<path d="M31.657 9.09897L42.1 9.11298L36.665 18.345L31.657 9.09897Z" fill="#122259"/>
</g>
<defs>
<clipPath id="clip0_17_2">
<rect width="152.998" height="36.545" fill="white"/>
</clipPath>
</defs>
</svg>
